<svg xmlns="http://www.w3.org/2000/svg" width="375" viewBox="0 0 375 375" height="375" version="1.0"><path d="M 99.339844 50.214844 L 144.339844 50.214844 L 144.339844 324.699219 L 99.339844 324.699219 L 99.339844 50.214844"/><path d="M 128.148438 324.785156 L 128.148438 279.785156 L 275.898438 279.785156 L 275.898438 324.785156 L 128.148438 324.785156"/><path d="M 128.148438 94.859375 L 128.148438 49.863281 L 275.898438 49.863281 L 275.898438 94.859375 L 128.148438 94.859375"/><path d="M 174.773438 155.992188 L 174.773438 122.992188 L 276.015625 122.992188 L 276.015625 155.992188 L 174.773438 155.992188"/><path d="M 242.859375 139.3125 L 275.855469 139.3125 L 275.855469 209.0625 L 242.859375 209.0625 L 242.859375 139.3125"/><path d="M 174.773438 221.023438 L 174.773438 192.523438 L 276.019531 192.523438 L 276.019531 221.023438 L 174.773438 221.023438"/><path d="M 174.769531 192.867188 L 212.269531 192.867188 L 212.269531 257.363281 L 174.769531 257.363281 L 174.769531 192.867188"/></svg>